<?xml version="1.0" standalone="no"?>
<!DOCTYPE svg PUBLIC "-//W3C//DTD SVG 20010904//EN"
 "http://www.w3.org/TR/2001/REC-SVG-20010904/DTD/svg10.dtd">
<svg version="1.0" xmlns="http://www.w3.org/2000/svg"
 width="1156.000000pt" height="1156.000000pt" viewBox="0 0 1156.000000 1156.000000"
 preserveAspectRatio="xMidYMid meet">
<metadata>
Created by potrace 1.11, written by Peter Selinger 2001-2013
</metadata>
<g transform="translate(0.000000,1156.000000) scale(0.100000,-0.100000)"
fill="#000000" stroke="none">
<path d="M4467 9384 c-1 -1 -63 -5 -137 -8 -388 -18 -375 -16 -492 -70 -40
-19 -116 -54 -168 -78 -52 -25 -109 -58 -127 -74 -25 -23 -123 -173 -123 -188
0 -2 -17 -35 -38 -73 -22 -37 -55 -97 -74 -133 -19 -36 -54 -100 -77 -142 -24
-43 -39 -78 -34 -78 4 0 1 -5 -7 -10 -12 -7 -15 -32 -15 -119 l0 -110 -92 -26
c-51 -14 -102 -28 -113 -31 -11 -2 -29 -6 -40 -8 -11 -3 -24 -7 -28 -10 -5 -3
-22 -8 -38 -11 -16 -3 -63 -14 -104 -25 -41 -12 -82 -23 -90 -25 -8 -2 -51
-13 -95 -25 -44 -12 -93 -25 -110 -30 -50 -13 -89 -30 -345 -152 -69 -33 -150
-72 -180 -86 -169 -78 -280 -135 -280 -143 0 -5 -11 -11 -24 -15 -14 -3 -27
-12 -30 -20 -3 -8 -10 -14 -16 -14 -12 0 -73 -41 -78 -52 -2 -5 -8 -8 -13 -8
-9 0 -65 -36 -79 -50 -3 -3 -99 -68 -215 -145 -115 -77 -216 -146 -223 -152
-7 -7 -17 -13 -21 -13 -4 0 -16 -8 -27 -17 -10 -10 -31 -24 -45 -31 -45 -23
-101 -84 -174 -185 -38 -54 -76 -105 -82 -115 -7 -9 -31 -40 -53 -69 -22 -29
-40 -55 -40 -58 0 -2 -7 -13 -15 -22 -8 -10 -49 -65 -92 -123 -42 -58 -96
-131 -120 -163 -24 -31 -43 -62 -43 -67 0 -6 -3 -10 -8 -10 -10 0 -48 -85 -62
-140 -6 -25 -14 -52 -17 -60 -3 -8 -7 -22 -8 -30 -1 -8 -10 -42 -19 -75 -9
-33 -18 -67 -20 -75 -2 -8 -9 -35 -16 -60 -7 -25 -14 -52 -15 -60 -2 -8 -8
-36 -14 -61 -17 -73 -7 -131 50 -294 5 -16 12 -37 14 -45 2 -8 10 -35 18 -60
8 -25 43 -133 77 -240 81 -257 95 -294 127 -336 14 -20 135 -114 267 -210 133
-96 248 -181 256 -187 9 -7 36 -27 62 -45 26 -18 52 -38 60 -45 30 -29 151
-99 269 -156 69 -34 129 -65 133 -69 4 -4 11 -7 14 -8 8 -1 108 -50 132 -64 8
-5 74 -37 145 -72 72 -35 132 -66 135 -69 3 -3 21 -11 40 -19 19 -8 37 -16 40
-19 3 -3 156 -82 340 -174 184 -92 376 -190 425 -217 50 -27 122 -66 161 -86
96 -49 112 -63 118 -104 3 -19 8 -48 12 -65 3 -16 7 -39 9 -50 11 -80 38 -218
49 -255 8 -25 26 -85 41 -135 99 -330 102 -333 327 -437 219 -100 242 -111
248 -113 3 -1 32 -14 65 -29 128 -59 144 -66 154 -66 6 0 11 -4 11 -9 0 -21
140 -34 213 -20 25 4 65 10 88 13 24 3 54 8 65 10 12 2 39 7 60 10 22 4 68 11
104 17 83 14 92 15 165 24 33 4 63 9 66 11 3 1 28 6 55 9 27 4 58 9 69 13 11
3 26 7 33 8 29 5 102 57 130 91 28 37 72 121 69 134 -1 4 7 16 17 28 11 12 16
21 12 21 -4 0 2 17 13 38 37 68 112 238 112 252 0 3 7 12 14 20 7 8 14 18 14
23 0 4 10 29 22 55 46 101 67 163 64 187 -1 14 1 28 5 30 18 11 -41 175 -63
175 -6 0 -7 20 -2 58 17 122 11 192 -24 266 -17 38 -30 70 -28 73 4 3 23 8 77
19 14 3 77 19 140 35 63 17 124 32 134 34 10 3 55 14 100 25 81 21 101 24 231
35 39 3 97 8 130 11 33 3 83 7 110 9 28 2 82 7 121 10 l70 6 145 -152 c218
-231 366 -379 377 -379 6 0 21 -4 34 -9 13 -5 26 -9 30 -10 4 -1 22 -7 40 -12
18 -6 40 -12 48 -14 8 -2 49 -13 90 -25 41 -12 84 -23 95 -25 11 -2 74 -18
140 -36 223 -61 304 -43 431 98 39 43 103 114 142 157 40 44 72 83 72 88 0 4
7 8 15 8 8 0 15 4 15 8 0 8 28 42 98 117 49 52 113 133 131 165 8 14 28 50 45
80 16 30 83 150 149 265 138 244 158 280 201 359 30 56 206 278 226 284 8 3
69 -37 90 -58 3 -3 23 -17 45 -32 22 -15 52 -38 67 -50 14 -13 36 -30 48 -38
12 -8 59 -43 105 -77 73 -55 257 -152 606 -317 60 -28 136 -36 199 -19 30 7
57 18 58 23 2 6 10 10 17 10 7 0 28 14 46 31 18 17 44 39 57 50 13 10 56 47
94 81 39 35 84 74 101 88 16 14 44 39 62 55 17 17 62 57 101 90 38 32 76 66
85 75 9 8 41 35 70 60 111 94 158 160 173 245 3 17 8 41 11 55 12 58 19 96 21
115 1 11 3 20 4 20 1 0 3 9 5 20 2 11 7 36 11 55 4 19 8 45 10 57 1 12 12 70
25 130 12 59 23 119 24 133 2 14 7 45 13 70 5 25 10 52 11 60 3 67 26 121 75
172 28 31 87 94 131 142 44 48 112 122 151 163 39 42 87 101 105 132 31 51 34
62 34 136 -1 51 -7 98 -19 130 -10 28 -19 58 -21 67 -2 9 -8 25 -14 36 -6 11
-7 22 -4 26 3 3 2 6 -3 6 -5 0 -11 8 -11 18 -4 31 -182 560 -202 599 -38 70
-91 113 -167 136 -73 21 -174 9 -279 -34 -20 -8 -347 -107 -375 -114 -8 -2
-35 -10 -60 -18 -25 -9 -83 -27 -130 -40 -197 -58 -326 -100 -337 -109 -7 -6
-13 -8 -13 -5 0 3 -56 -23 -125 -58 -69 -35 -125 -61 -125 -57 0 4 -4 2 -8 -4
-11 -15 -395 -204 -416 -204 -10 0 -37 12 -60 28 -22 15 -62 38 -88 52 -26 14
-50 31 -53 38 -5 13 -13 68 -20 142 -2 25 -5 45 -5 45 -1 0 -3 15 -5 34 -2 19
-6 53 -10 75 -3 23 -8 68 -11 101 -3 33 -7 71 -10 85 -6 32 -11 73 -18 135 -7
65 -16 136 -19 155 -7 35 -47 108 -78 141 -19 20 -61 58 -94 85 -33 27 -62 52
-63 57 -2 4 -8 5 -13 1 -5 -3 -9 -1 -9 4 0 5 -30 33 -67 63 -38 29 -70 56 -73
59 -3 3 -52 44 -109 91 -58 46 -120 98 -139 115 -53 48 -137 95 -179 101 -21
3 -292 6 -603 6 -464 1 -574 -1 -612 -13 -27 -8 -48 -18 -48 -22 0 -4 -6 -8
-13 -8 -15 0 -75 -56 -117 -109 -14 -17 -34 -41 -45 -54 -11 -13 -38 -45 -60
-72 -22 -27 -44 -53 -50 -59 -5 -6 -28 -34 -50 -61 -46 -58 -83 -101 -107
-127 -10 -10 -18 -20 -18 -23 0 -3 -13 -20 -29 -38 -16 -17 -39 -45 -52 -60
l-24 -28 -45 19 c-50 21 -105 46 -195 88 -33 15 -63 28 -66 28 -6 1 -111 48
-118 53 -2 2 -5 13 -7 26 -1 12 -3 23 -4 25 -3 3 -4 5 -19 77 -8 33 -14 65
-16 70 -1 6 -4 17 -7 25 -6 14 -23 94 -34 153 -2 15 -9 38 -14 52 -5 14 -7 25
-5 25 2 0 0 12 -6 28 -6 15 -13 38 -15 52 -3 14 -21 88 -40 165 -20 77 -37
147 -39 155 -17 86 -47 161 -80 199 -43 50 -128 94 -225 116 -5 1 -119 36
-190 57 -19 6 -44 14 -55 19 -17 7 -260 80 -320 96 -18 5 -224 11 -228 7z"/>
</g>
</svg>
